# xmcd
#
# Track frame offsets: 
#        150
#        11287
#        18379
#        32833
#        42168
#        53576
#        65392
#        73817
#        82841
#        90466
#        106222
#        116438
#        130093
#        139023
#        148173
#        156865
#        166303
#        175395
#        181370
#        190956
#        201448
#
# Disc length: 2806 seconds
#
# Revision: 0
# Processed by: cddbd v1.5.2PL0 Copyright (c) Steve Scherf et al.
# Submitted via: ExactAudioCopy v1.0b1
#
DISCID=1b0af415
DTITLE=Duane Eddy - The Twang's The Thang and Bonus Tracks
DYEAR=1900
DGENRE=Rock
TTITLE0=My Blue Heaven
TTITLE1=Tiger Love And The Turnip Greens
TTITLE2=The Last Minute Of Innocence
TTITLE3=Route No. 1
TTITLE4=You Are My Sunshine
TTITLE5=St Louis Blues
TTITLE6=Night Train To Memphis
TTITLE7=The Battle
TTITLE8=Trambone
TTITLE9=Blueberry Hill
TTITLE10=Rebel Walk
TTITLE11=Easy
TTITLE12=Up And Down
TTITLE13=The Walker
TTITLE14=Mason Dixon Line
TTITLE15=40 Miles Of Bad Road
TTITLE16=The Quiet Three
TTITLE17=Some Kinda Earthquake
TTITLE18=First Love First Tears
TTITLE19=Bonnie Come Back
TTITLE20=Long Island
EXTD=
EXTT0=
EXTT1=
EXTT2=
EXTT3=
EXTT4=
EXTT5=
EXTT6=
EXTT7=
EXTT8=
EXTT9=
EXTT10=
EXTT11=
EXTT12=
EXTT13=
EXTT14=
EXTT15=
EXTT16=
EXTT17=
EXTT18=
EXTT19=
EXTT20=
PLAYORDER=
